HIERARCHY
ROOT Bip01
{
  OFFSET 15.7446 31.5610 57.6474
  CHANNELS 6 Xposition Yposition Zposition Zrotation Xrotation Yrotation
  JOINT Bip01_Footsteps
  {
    OFFSET 53.2821 -0.0001 8.1953
    CHANNELS 6 Xposition Yposition Zposition Zrotation Xrotation Yrotation
    End Site
    {
      OFFSET 0 0 0
    }
  }
  JOINT b_Hips
  {
    OFFSET 0.0000 0.0000 0.0000
    CHANNELS 6 Xposition Yposition Zposition Zrotation Xrotation Yrotation
    JOINT b_Spine
    {
      OFFSET 10.4409 -1.6220 0.0000
      CHANNELS 6 Xposition Yposition Zposition Zrotation Xrotation Yrotation
      JOINT b_Spine1
      {
        OFFSET 8.8514 -0.0090 -0.0000
        CHANNELS 6 Xposition Yposition Zposition Zrotation Xrotation Yrotation
        JOINT b_Spine2
        {
          OFFSET 11.3035 -0.0088 0.0000
          CHANNELS 6 Xposition Yposition Zposition Zrotation Xrotation Yrotation
          JOINT b_Spine3
          {
            OFFSET 11.0297 -0.0113 0.0000
            CHANNELS 6 Xposition Yposition Zposition Zrotation Xrotation Yrotation
            JOINT b__Neck
            {
              OFFSET 14.9480 -3.1935 0.0000
              CHANNELS 6 Xposition Yposition Zposition Zrotation Xrotation Yrotation
              JOINT b__Neck1
              {
                OFFSET 5.4958 -0.0043 -0.0000
                CHANNELS 6 Xposition Yposition Zposition Zrotation Xrotation Yrotation
                JOINT b__Neck2
                {
                  OFFSET 5.5266 -0.0049 -0.0000
                  CHANNELS 6 Xposition Yposition Zposition Zrotation Xrotation Yrotation
                  JOINT b_Head
                  {
                    OFFSET 6.1093 0.0000 -0.0000
                    CHANNELS 6 Xposition Yposition Zposition Zrotation Xrotation Yrotation
                    JOINT Bip01_HeadNub
                    {
                      OFFSET 28.6688 -0.0000 0.0000
                      CHANNELS 6 Xposition Yposition Zposition Zrotation Xrotation Yrotation
                      End Site
                      {
                        OFFSET 0 0 0
                      }
                    }
                    JOINT Dog_Jaw
                    {
                      OFFSET 0.6075 2.3575 -0.0000
                      CHANNELS 6 Xposition Yposition Zposition Zrotation Xrotation Yrotation
                      End Site
                      {
                        OFFSET 0 0 0
                      }
                    }
                  }
                }
              }
            }
            JOINT b_LeftClav
            {
              OFFSET 10.4683 2.1257 3.5190
              CHANNELS 6 Xposition Yposition Zposition Zrotation Xrotation Yrotation
              JOINT b_LeftArm
              {
                OFFSET 7.3453 0.0000 0.0000
                CHANNELS 6 Xposition Yposition Zposition Zrotation Xrotation Yrotation
                JOINT b_LeftForeArm
                {
                  OFFSET 23.3863 -0.0000 0.0000
                  CHANNELS 6 Xposition Yposition Zposition Zrotation Xrotation Yrotation
                  JOINT b_LeftHand
                  {
                    OFFSET 21.5040 0.0000 -0.0000
                    CHANNELS 6 Xposition Yposition Zposition Zrotation Xrotation Yrotation
                    JOINT b__LeftFinger
                    {
                      OFFSET 1.5926 6.2126 -0.0138
                      CHANNELS 6 Xposition Yposition Zposition Zrotation Xrotation Yrotation
                      JOINT Bip01_L_Finger0Nub
                      {
                        OFFSET 23.3657 0.0000 0.0000
                        CHANNELS 6 Xposition Yposition Zposition Zrotation Xrotation Yrotation
                        End Site
                        {
                          OFFSET 0 0 0
                        }
                      }
                    }
                  }
                }
                JOINT Dog_LeftArmor002
                {
                  OFFSET 4.2035 4.4457 12.7354
                  CHANNELS 6 Xposition Yposition Zposition Zrotation Xrotation Yrotation
                  End Site
                  {
                    OFFSET 0 0 0
                  }
                }
              }
            }
            JOINT b_RightClav
            {
              OFFSET 10.4683 2.1257 -3.5189
              CHANNELS 6 Xposition Yposition Zposition Zrotation Xrotation Yrotation
              JOINT b_RightArm
              {
                OFFSET 7.3453 0.0000 -0.0000
                CHANNELS 6 Xposition Yposition Zposition Zrotation Xrotation Yrotation
                JOINT b_RightForeArm
                {
                  OFFSET 23.3863 0.0000 0.0000
                  CHANNELS 6 Xposition Yposition Zposition Zrotation Xrotation Yrotation
                  JOINT b_RightHand
                  {
                    OFFSET 21.5040 0.0000 0.0000
                    CHANNELS 6 Xposition Yposition Zposition Zrotation Xrotation Yrotation
                    JOINT b_RightFinger
                    {
                      OFFSET 1.5926 6.2126 0.0138
                      CHANNELS 6 Xposition Yposition Zposition Zrotation Xrotation Yrotation
                      JOINT Bip01_R_Finger0Nub
                      {
                        OFFSET 23.3657 0.0000 0.0000
                        CHANNELS 6 Xposition Yposition Zposition Zrotation Xrotation Yrotation
                        End Site
                        {
                          OFFSET 0 0 0
                        }
                      }
                    }
                  }
                }
                JOINT Dog_RightArmor002
                {
                  OFFSET 4.2034 4.4457 -12.7351
                  CHANNELS 6 Xposition Yposition Zposition Zrotation Xrotation Yrotation
                  End Site
                  {
                    OFFSET 0 0 0
                  }
                }
              }
            }
          }
        }
      }
    }
    JOINT b_Tail001
    {
      OFFSET -4.7889 3.8598 0.8608
      CHANNELS 6 Xposition Yposition Zposition Zrotation Xrotation Yrotation
      JOINT b_Tail002
      {
        OFFSET 4.2212 0.0000 -0.0000
        CHANNELS 6 Xposition Yposition Zposition Zrotation Xrotation Yrotation
        JOINT b_Tail003
        {
          OFFSET 4.9750 0.0000 -0.0000
          CHANNELS 6 Xposition Yposition Zposition Zrotation Xrotation Yrotation
          JOINT b_Tail004
          {
            OFFSET 4.7171 -0.0000 0.0000
            CHANNELS 6 Xposition Yposition Zposition Zrotation Xrotation Yrotation
            JOINT b_Tail005
            {
              OFFSET 9.7173 -0.0000 -0.0001
              CHANNELS 6 Xposition Yposition Zposition Zrotation Xrotation Yrotation
              JOINT b_Tail006
              {
                OFFSET 8.2617 0.0001 0.0000
                CHANNELS 6 Xposition Yposition Zposition Zrotation Xrotation Yrotation
                JOINT b_Tail007
                {
                  OFFSET 9.7599 -0.0001 0.0000
                  CHANNELS 6 Xposition Yposition Zposition Zrotation Xrotation Yrotation
                  JOINT b_Tail008
                  {
                    OFFSET 11.1530 0.0000 -0.0000
                    CHANNELS 6 Xposition Yposition Zposition Zrotation Xrotation Yrotation
                    JOINT b_Tail009
                    {
                      OFFSET 10.3039 0.0000 0.0000
                      CHANNELS 6 Xposition Yposition Zposition Zrotation Xrotation Yrotation
                      End Site
                      {
                        OFFSET 0 0 0
                      }
                    }
                  }
                }
              }
            }
          }
        }
      }
    }
    JOINT Dog_LeftTail001
    {
      OFFSET -11.9878 -1.7857 10.1900
      CHANNELS 6 Xposition Yposition Zposition Zrotation Xrotation Yrotation
      JOINT Dog_LeftTail002
      {
        OFFSET 8.4424 0.0000 0.0000
        CHANNELS 6 Xposition Yposition Zposition Zrotation Xrotation Yrotation
        JOINT Dog_LeftTail003
        {
          OFFSET 9.9501 0.0000 -0.0000
          CHANNELS 6 Xposition Yposition Zposition Zrotation Xrotation Yrotation
          JOINT Dog_LeftTail004
          {
            OFFSET 9.4342 0.0000 -0.0000
            CHANNELS 6 Xposition Yposition Zposition Zrotation Xrotation Yrotation
            JOINT Dog_LeftTail005
            {
              OFFSET 9.7173 0.0001 0.0001
              CHANNELS 6 Xposition Yposition Zposition Zrotation Xrotation Yrotation
              JOINT Dog_LeftTail006
              {
                OFFSET 8.2618 -0.0000 -0.0000
                CHANNELS 6 Xposition Yposition Zposition Zrotation Xrotation Yrotation
                JOINT Dog_LeftTail007
                {
                  OFFSET 9.7599 0.0000 0.0000
                  CHANNELS 6 Xposition Yposition Zposition Zrotation Xrotation Yrotation
                  JOINT Dog_LeftTail008
                  {
                    OFFSET 11.1529 -0.0001 -0.0001
                    CHANNELS 6 Xposition Yposition Zposition Zrotation Xrotation Yrotation
                    JOINT Dog_LeftTail009
                    {
                      OFFSET 10.3039 -0.0000 0.0000
                      CHANNELS 6 Xposition Yposition Zposition Zrotation Xrotation Yrotation
                      End Site
                      {
                        OFFSET 0 0 0
                      }
                    }
                  }
                }
              }
            }
          }
        }
      }
    }
    JOINT b_LeftLegUpper
    {
      OFFSET -0.0000 0.0000 9.9422
      CHANNELS 6 Xposition Yposition Zposition Zrotation Xrotation Yrotation
      JOINT b_LeftLeg
      {
        OFFSET 25.9795 0.0000 -0.0000
        CHANNELS 6 Xposition Yposition Zposition Zrotation Xrotation Yrotation
        JOINT b_LeftLeg1
        {
          OFFSET 21.2087 0.0000 -0.0000
          CHANNELS 6 Xposition Yposition Zposition Zrotation Xrotation Yrotation
          JOINT b_LeftAnkle
          {
            OFFSET 10.4341 -0.0000 0.0000
            CHANNELS 6 Xposition Yposition Zposition Zrotation Xrotation Yrotation
            JOINT b_LeftToe
            {
              OFFSET 5.6676 6.5983 0.0000
              CHANNELS 6 Xposition Yposition Zposition Zrotation Xrotation Yrotation
              JOINT Bip01_L_Toe0Nub
              {
                OFFSET 8.6279 0.0000 -0.0000
                CHANNELS 6 Xposition Yposition Zposition Zrotation Xrotation Yrotation
                End Site
                {
                  OFFSET 0 0 0
                }
              }
            }
            JOINT b_LeftToe002
            {
              OFFSET 5.6741 -2.3619 -0.5306
              CHANNELS 6 Xposition Yposition Zposition Zrotation Xrotation Yrotation
              End Site
              {
                OFFSET 0 0 0
              }
            }
          }
        }
      }
      JOINT Dog_LeftArmor001
      {
        OFFSET -2.6287 -3.4254 -3.1462
        CHANNELS 6 Xposition Yposition Zposition Zrotation Xrotation Yrotation
        End Site
        {
          OFFSET 0 0 0
        }
      }
    }
    JOINT b_RightLegUpper
    {
      OFFSET 0.0000 -0.0000 -9.9422
      CHANNELS 6 Xposition Yposition Zposition Zrotation Xrotation Yrotation
      JOINT b_RightLeg
      {
        OFFSET 25.9795 0.0000 0.0000
        CHANNELS 6 Xposition Yposition Zposition Zrotation Xrotation Yrotation
        JOINT b_RightLeg1
        {
          OFFSET 21.2087 0.0000 0.0000
          CHANNELS 6 Xposition Yposition Zposition Zrotation Xrotation Yrotation
          JOINT b_RightAnkle
          {
            OFFSET 10.4341 -0.0000 -0.0000
            CHANNELS 6 Xposition Yposition Zposition Zrotation Xrotation Yrotation
            JOINT b_RightToe
            {
              OFFSET 5.6676 6.5983 -0.0000
              CHANNELS 6 Xposition Yposition Zposition Zrotation Xrotation Yrotation
              JOINT Bip01_R_Toe0Nub
              {
                OFFSET 8.6279 -0.0000 0.0000
                CHANNELS 6 Xposition Yposition Zposition Zrotation Xrotation Yrotation
                End Site
                {
                  OFFSET 0 0 0
                }
              }
            }
            JOINT b_RightToe002
            {
              OFFSET 5.6741 -2.3620 0.5304
              CHANNELS 6 Xposition Yposition Zposition Zrotation Xrotation Yrotation
              End Site
              {
                OFFSET 0 0 0
              }
            }
          }
        }
      }
      JOINT Dog_RightArmor001
      {
        OFFSET -2.6288 -3.4254 3.1460
        CHANNELS 6 Xposition Yposition Zposition Zrotation Xrotation Yrotation
        End Site
        {
          OFFSET 0 0 0
        }
      }
    }
  }
}
MOTION
Frames: 4
Frame Time: 0.03333333
80.2917 58.882 -602.066 89.0009 28.7942 -160.228 53.2821 -6.35e-05 8.19533 -90 -81.2558 -180 0 0 0 -89.9999 -4.1675e-14 -90 10.4409 -1.622 1.78e-05 -5.68197 7.53699 -1.82461 8.8514 -0.0089989 5.68434e-14 1.087 8.36933 -1.95473 11.3035 -0.0087814 -5.68434e-14 -0.0897062 3.0739 -6.02727 11.0297 -0.0113029 5.68434e-14 2.24652 4.07944 -10.037 14.948 -3.19349 8.6e-06 -44.2506 3.00829 -60.3362 5.49578 -0.0042877 0 26.6573 3.28227 19.8797 5.52657 -0.0048637 0 8.96711 13.5419 -9.1424 6.10934 0 -1.13687e-13 34.5248 -12.2504 -9.26149 28.6688 0 1.13687e-13 -2.78299e-15 3.97569e-16 -1.59028e-15 0.607494 2.35752 -7.6e-06 -156.427 -0.000147608 180 10.4683 2.1257 3.51896 -163.418 18.5628 -89.4376 7.34534 5.68434e-14 1.9e-06 -86.6654 -58.7117 15.2813 23.3863 -1.9e-06 1e-06 -48.8314 0.530585 -1.27968 21.504 0 0 2.55888 0.821041 5.85338 1.59262 6.21256 -0.0138378 39.7472 -53.5823 30.5913 23.3657 0 1e-06 -8.34896e-15 1.59028e-15 3.18055e-15 4.20345 4.44573 12.7354 172.377 0.21838 -87.1877 10.4683 2.12572 -3.51895 179.777 19.7641 109.202 7.34534 2.84217e-14 -1.9e-06 62.3072 61.9255 -138.955 23.3863 1.9e-06 1.13687e-13 -47.6489 0 6.36111e-15 21.504 3.8e-06 1e-06 -127.364 -25.9834 10.4319 1.59262 6.21257 0.0138388 -13.1239 1.09216 3.80871 23.3657 0 1e-06 180 1.27222e-14 2.38542e-15 4.20337 4.4457 -12.7351 172.377 -0.218352 87.1876 -4.78895 3.85983 0.86083 163.046 8.5281 30.4153 4.22117 3.815e-05 -5.7e-06 6.38596 45.9624 3.72593 4.97505 3.8e-06 -6.7e-06 -1.19632 7.5026 -0.0676568 4.7171 -1.145e-05 2.86e-05 -0 0 -0 9.71734 -4.2e-05 -5.72e-05 -0 -6.36111e-15 -0 8.26175 8.01e-05 5.7e-06 -1.27222e-14 3.18055e-15 -3.18055e-15 9.75986 -6.48e-05 2.86e-05 3.18055e-15 -3.18055e-15 -3.18055e-15 11.153 2.67e-05 -2.1e-05 -0 3.18055e-15 -0 10.3039 1.14e-05 4.2e-05 3.18055e-15 -6.36111e-15 -0 -11.9878 -1.78568 10.19 170.606 3.62573 1.11034 8.44238 1.53e-05 4.2e-05 7.95139e-16 -1.59028e-15 -3.18055e-15 9.95005 7.6e-06 -2.86e-05 7.95139e-16 -1.59028e-15 -3.18055e-15 9.43418 0 -4.58e-05 3.18055e-15 -7.95139e-16 -6.36111e-15 9.71733 6.87e-05 0.0001106 7.95139e-16 -7.95139e-16 -9.54166e-15 8.26175 -2.29e-05 -4.77e-05 2.38542e-15 7.95139e-16 -3.18055e-15 9.75994 2.86e-05 3.05e-05 -0 0 -3.18055e-15 11.1529 -7.25e-05 -5.91e-05 -0 0 -3.18055e-15 10.3039 -7.6e-06 0 -7.95139e-16 -7.95139e-16 -3.18055e-15 -1.14e-05 1.53e-05 9.94222 -114.591 -38.6464 171.438 25.9795 1e-06 0 17.9019 -1.1357 -0.419587 21.2087 1.9e-06 -1e-06 50.1483 -63.2917 33.0823 10.4341 -1.9e-06 1e-06 -0.831878 -1.69693 4.90243 5.66763 6.59832 5.68434e-14 101.963 30.1781 -18.7812 8.62785 -1.42109e-14 1.13687e-13 -180 -6.36111e-14 6.36111e-15 5.67414 -2.36194 -0.530567 -75.8081 4.38708 5.33411 -2.62874 -3.42539 -3.14618 29.7499 1.82752 90.2264 1.53e-05 -1.53e-05 -9.94222 -132.374 -6.76674 174.428 25.9795 -1.13687e-13 1e-06 -80.0187 -1.88471 1.78756 21.2087 0 1.9e-06 109.99 -5.52545 17.7239 10.4341 -1.9e-06 -1e-06 179.595 39.1537 156.36 5.66763 6.59831 1.13687e-13 100.034 30.6603 -42.3873 8.62785 0 -5.68434e-14 3.18055e-15 3.18055e-15 3.18055e-15 5.67412 -2.36198 0.530356 -75.808 -4.38692 -5.33418 -2.62878 -3.42545 3.14601 29.7498 -1.82753 -90.2266
79.5023 56.7682 -608.148 90.2782 32.5119 -163.718 53.2821 -6.35e-05 8.19533 -90 -81.2558 -180 0 0 0 -89.9999 -5.43972e-14 -90 10.4409 -1.622 1.78e-05 -4.44999 8.64493 -2.36316 8.8514 -0.0089989 0 0.373246 9.10649 -1.6224 11.3035 -0.0087814 0 -0.866649 2.6484 -6.24107 11.0297 -0.0113029 0 1.84868 2.81962 -7.88321 14.948 -3.19349 8.6e-06 -41.8191 -15.1819 -45.2391 5.49578 -0.0042877 0 10.385 4.39461 -2.94642 5.52657 -0.0048637 -1.13687e-13 10.2574 19.8783 -9.89767 6.10934 5.68434e-14 0 35.4387 -11.1208 -9.41118 28.6688 -7.10543e-15 1.13687e-13 -3.77691e-15 -7.95139e-16 -0 0.607494 2.35752 -7.6e-06 -156.427 -0.000147608 180 10.4683 2.1257 3.51896 -165.631 16.2097 -89.745 7.34534 0 1.9e-06 -91.0812 -60.1947 9.02356 23.3863 -1.9e-06 1e-06 -60.4169 0.776795 -1.14705 21.504 5.68434e-14 0 -1.19187 0.435047 5.89451 1.59262 6.21256 -0.0138378 30.3957 -52.5494 23.5733 23.3657 -1.42109e-14 1e-06 -0 0 3.18055e-15 4.20345 4.44573 12.7354 172.377 0.21838 -87.1877 10.4683 2.12572 -3.51895 -174.644 15.4766 103.09 7.34534 0 -1.9e-06 54.8504 61.0897 -130.923 23.3863 1.9e-06 0 -49.9015 3.18055e-15 1.59028e-15 21.504 3.8e-06 1e-06 -128.628 -26.6847 11.2312 1.59262 6.21257 0.0138388 -13.4508 0.867806 4.00349 23.3657 0 1e-06 180 1.27222e-14 1.15295e-14 4.20337 4.4457 -12.7351 172.377 -0.218352 87.1876 -4.78895 3.85983 0.86083 160.234 6.56964 29.8955 4.22117 3.815e-05 -5.7e-06 5.96469 35.303 -0.0309104 4.97505 3.8e-06 -6.7e-06 -1.47019 7.47854 -0.650288 4.7171 -1.145e-05 2.86e-05 3.18055e-15 0 -0 9.71734 -4.2e-05 -5.72e-05 3.18055e-15 -3.18055e-15 -0 8.26175 8.01e-05 5.7e-06 3.18055e-15 -3.18055e-15 -0 9.75986 -6.48e-05 2.86e-05 3.18055e-15 -3.18055e-15 -0 11.153 2.67e-05 -2.1e-05 3.18055e-15 -3.18055e-15 -0 10.3039 1.14e-05 4.2e-05 3.18055e-15 -3.18055e-15 -0 -11.9878 -1.78568 10.19 170.606 3.62573 1.11034 8.44238 1.53e-05 4.2e-05 -3.97569e-16 -1.98785e-15 -9.54166e-15 9.95005 7.6e-06 -2.86e-05 3.97569e-16 -1.19271e-15 -6.36111e-15 9.43418 0 -4.58e-05 -1.19271e-15 -1.59028e-15 -9.54166e-15 9.71733 6.87e-05 0.0001106 -7.95139e-16 -1.59028e-15 -9.54166e-15 8.26175 -2.29e-05 -4.77e-05 -7.95139e-16 -1.19271e-15 -3.18055e-15 9.75994 2.86e-05 3.05e-05 -1.59028e-15 -1.59028e-15 -3.18055e-15 11.1529 -7.25e-05 -5.91e-05 -7.95139e-16 -1.19271e-15 -0 10.3039 -7.6e-06 0 -7.95139e-16 -1.59028e-15 -6.36111e-15 -1.14e-05 1.53e-05 9.94222 -113.502 -70.5807 169.664 25.9795 1e-06 0 25.671 -1.18199 -0.262222 21.2087 1.9e-06 -1e-06 115.427 -49.5498 117.337 10.4341 -1.9e-06 1e-06 -3.41485 -1.91656 4.82098 5.66763 6.59832 -1.13687e-13 90.2718 30.7678 -21.6646 8.62785 0 0 -180 2.10712e-14 -3.18055e-15 5.67414 -2.36194 -0.530567 -75.8081 4.38708 5.33411 -2.62874 -3.42539 -3.14618 29.7499 1.82752 90.2264 1.53e-05 -1.53e-05 -9.94222 -140.182 -7.19272 172.129 25.9795 0 1e-06 -74.9483 -1.71937 1.94711 21.2087 -5.68434e-14 1.9e-06 114.932 -2.56657 22.675 10.4341 -1.9e-06 -1e-06 179.597 38.3856 155.787 5.66763 6.59831 0 100.924 30.0589 -43.0122 8.62785 -5.68434e-14 -1.13687e-13 -1.59028e-15 0 3.18055e-15 5.67412 -2.36198 0.530356 -75.808 -4.38692 -5.33418 -2.62878 -3.42545 3.14601 29.7498 -1.82753 -90.2266
78.7957 54.6298 -613.76 94.16 38.577 -168.818 53.2821 -6.35e-05 8.19533 -90 -81.2558 -180 0 0 0 -89.9999 -4.1675e-14 -90 10.4409 -1.622 1.78e-05 -4.15158 8.10621 -1.78954 8.8514 -0.0089989 -5.68434e-14 -1.06607 9.5723 -0.363709 11.3035 -0.0087814 0 -2.20768 2.35242 -5.58944 11.0297 -0.0113029 -5.68434e-14 1.56037 1.7115 -6.35307 14.948 -3.19349 8.6e-06 -34.3096 -15.7914 -36.9655 5.49578 -0.0042877 1.13687e-13 3.91943 3.81988 -9.1511 5.52657 -0.0048637 0 10.0966 20.912 -9.9641 6.10934 5.68434e-14 0 36.6185 -11.4866 -11.054 28.6688 7.10543e-15 0 1.59028e-15 0 -0 0.607494 2.35752 -7.6e-06 -156.427 -0.000147608 180 10.4683 2.1257 3.51896 -170.013 12.2172 -88.8374 7.34534 -2.84217e-14 1.9e-06 -97.4027 -70.7651 2.81793 23.3863 -1.9e-06 1e-06 -60.8624 0.785692 -1.14098 21.504 0 0 -29.8514 -2.45387 5.37867 1.59262 6.21256 -0.0138378 6.99865 -46.1274 -0.30078 23.3657 0 1e-06 -0 0 -3.18055e-15 4.20345 4.44573 12.7354 172.377 0.21838 -87.1877 10.4683 2.12572 -3.51895 -169.755 8.92959 96.4822 7.34534 -2.84217e-14 -1.9e-06 41.7067 63.935 -116.869 23.3863 1.9e-06 0 -46.8356 -6.36111e-15 -4.77083e-15 21.504 3.8e-06 1e-06 -127.923 -24.7432 12.7409 1.59262 6.21257 0.0138388 -13.5372 0.0903504 3.95977 23.3657 1.13687e-13 1e-06 180 1.59028e-14 -1.59028e-15 4.20337 4.4457 -12.7351 172.377 -0.218352 87.1876 -4.78895 3.85983 0.86083 157.982 6.22172 27.523 4.22117 3.815e-05 -5.7e-06 5.84639 23.7758 -6.46809 4.97505 3.8e-06 -6.7e-06 -3.15155 8.44227 -2.04923 4.7171 -1.145e-05 2.86e-05 -1.76556e-31 -3.18055e-15 -3.18055e-15 9.71734 -4.2e-05 -5.72e-05 -3.18055e-15 0 3.18055e-15 8.26175 8.01e-05 5.7e-06 -0 0 6.36111e-15 9.75986 -6.48e-05 2.86e-05 3.18055e-15 -3.18055e-15 -0 11.153 2.67e-05 -2.1e-05 3.18055e-15 0 -3.18055e-15 10.3039 1.14e-05 4.2e-05 -3.18055e-15 0 -3.18055e-15 -11.9878 -1.78568 10.19 170.606 3.62573 1.11034 8.44238 1.53e-05 4.2e-05 -7.95139e-16 1.2921e-15 3.18055e-15 9.95005 7.6e-06 -2.86e-05 1.2921e-15 1.68967e-15 -0 9.43418 -7.10543e-15 -4.58e-05 9.93923e-16 4.96962e-16 -3.18055e-15 9.71733 6.87e-05 0.0001106 -9.93923e-17 1.98785e-15 3.18055e-15 8.26175 -2.29e-05 -4.77e-05 -5.96354e-16 3.37934e-15 9.54166e-15 9.75994 2.86e-05 3.05e-05 -3.97569e-16 2.38542e-15 3.18055e-15 11.1529 -7.25e-05 -5.91e-05 -9.93923e-17 5.96354e-16 -0 10.3039 -7.6e-06 0 4.96962e-16 5.96354e-16 3.18055e-15 -1.14e-05 1.53e-05 9.94222 59.4641 -72.5271 -19.1599 25.9795 1e-06 1.13687e-13 38.9406 -1.21062 0.0160632 21.2087 1.9e-06 -1e-06 109.443 -19.0471 137.184 10.4341 -1.9e-06 1e-06 -16.4897 -2.95875 4.26244 5.66763 6.59832 -1.13687e-13 85.2098 27.7789 -19.6021 8.62785 0 -1.13687e-13 -180 -1.74931e-14 6.36111e-15 5.67414 -2.36194 -0.530567 -75.8081 4.38708 5.33411 -2.62874 -3.42539 -3.14618 29.7499 1.82752 90.2264 1.53e-05 -1.53e-05 -9.94222 -141.827 -8.33694 171.258 25.9795 0 1e-06 -53.8446 -0.902802 2.43552 21.2087 0 1.9e-06 99.036 -7.07373 26.5926 10.4341 -1.9e-06 -1e-06 179.536 30.0952 158.453 5.66763 6.59831 -1.13687e-13 96.6229 31.2227 -38.9351 8.62785 0 0 1.59028e-15 0 -0 5.67412 -2.36198 0.530355 -75.808 -4.38692 -5.33418 -2.62878 -3.42545 3.14601 29.7498 -1.82753 -90.2266
78.3832 53.6383 -619.663 98.1937 48.1287 -172.687 53.2821 -6.35e-05 8.19533 -90 -81.2558 -180 0 0 0 -89.9999 -4.1675e-14 -90 10.4409 -1.622 1.78e-05 -5.65926 4.71455 -0.65125 8.8514 -0.0089989 0 -2.55727 7.47392 3.47718 11.3035 -0.0087814 5.68434e-14 -3.2219 2.93326 -1.95402 11.0297 -0.0113029 0 0.906254 1.6759 -5.11012 14.948 -3.19349 8.6e-06 -32.6034 -8.58579 -34.4255 5.49578 -0.0042877 -1.13687e-13 3.30193 5.11045 -9.47758 5.52657 -0.0048637 0 9.86581 21.0276 -9.93835 6.10934 2.84217e-14 -1.13687e-13 37.3427 -11.9906 -12.717 28.6688 1.42109e-14 -1.13687e-13 3.18055e-15 1.59028e-15 -0 0.607494 2.35752 -7.6e-06 -156.427 -0.000147608 180 10.4683 2.1257 3.51896 -174.998 10.8857 -89.8625 7.34534 0 1.9e-06 -149.272 -83.1043 -50.779 23.3863 -1.9e-06 1e-06 -45.6082 0.457785 -1.30749 21.504 0 0 -79.3778 -5.68248 1.62849 1.59262 6.21256 -0.0138378 5.66561 -24.8855 -5.94904 23.3657 5.68434e-14 1e-06 -6.36111e-15 9.54166e-15 4.77083e-15 4.20345 4.44573 12.7354 172.377 0.21838 -87.1877 10.4683 2.12572 -3.51895 -168.563 3.95398 92.4053 7.34534 0 -1.9e-06 21.5328 65.4535 -97.7742 23.3863 1.9e-06 1.13687e-13 -40.6738 -3.18055e-15 -6.36111e-15 21.504 3.8e-06 1e-06 -121.767 -19.1298 14.1295 1.59262 6.21257 0.0138388 -13.2697 0.466534 3.47156 23.3657 1.13687e-13 1e-06 180 4.45278e-14 -2.38542e-14 4.20337 4.4457 -12.7351 172.377 -0.218352 87.1876 -4.78895 3.85983 0.86083 159.491 5.51519 26.4295 4.22117 3.815e-05 -5.7e-06 3.8069 8.67495 -13.5865 4.97505 3.8e-06 -6.7e-06 -4.81335 9.68232 -2.05841 4.7171 -1.145e-05 2.86e-05 -1.59028e-15 -6.36111e-15 -3.18055e-15 9.71734 -4.2e-05 -5.72e-05 -1.59028e-15 0 -0 8.26175 8.01e-05 5.7e-06 1.59028e-15 0 -0 9.75986 -6.48e-05 2.86e-05 1.59028e-15 -3.18055e-15 -0 11.153 2.67e-05 -2.1e-05 1.59028e-15 0 -3.18055e-15 10.3039 1.14e-05 4.2e-05 1.59028e-15 -3.18055e-15 -0 -11.9878 -1.78568 10.19 170.606 3.62573 1.11034 8.44238 1.53e-05 4.2e-05 -2.20695e-32 -3.97569e-16 -3.18055e-15 9.95005 7.6e-06 -2.86e-05 -4.41391e-32 -7.95139e-16 -3.18055e-15 9.43418 -7.10543e-15 -4.58e-05 -7.95139e-16 0 -6.36111e-15 9.71733 6.87e-05 0.0001106 -1.98785e-15 0 3.18055e-15 8.26175 -2.29e-05 -4.77e-05 -7.95139e-16 -1.98785e-15 -3.18055e-15 9.75994 2.86e-05 3.05e-05 -7.95139e-16 7.95139e-16 3.18055e-15 11.1529 -7.25e-05 -5.91e-05 -1.19271e-15 -3.97569e-16 3.18055e-15 10.3039 -7.6e-06 0 3.97569e-16 -3.18055e-15 -9.54166e-15 -1.14e-05 1.53e-05 9.94222 62.4667 -42.2401 -15.6746 25.9795 1e-06 0 50.7579 -1.18168 0.263631 21.2087 1.9e-06 -1e-06 99.4693 -9.74741 151.252 10.4341 -1.9e-06 1e-06 -20.0467 -3.21758 4.07075 5.66763 6.59832 0 83.3431 22.0791 -14.7554 8.62785 1.42109e-14 0 -180 5.56597e-15 -9.54166e-15 5.67414 -2.36194 -0.530567 -75.8081 4.38708 5.33411 -2.62874 -3.42539 -3.14618 29.7499 1.82752 90.2264 1.53e-05 -1.53e-05 -9.94222 -135.771 -9.16646 170.639 25.9795 -5.68434e-14 1e-06 -21.457 0.543078 2.54 21.2087 0 1.9e-06 59.6407 -19.5513 21.9747 10.4341 -1.9e-06 -1e-06 -175.809 23.483 159.192 5.66763 6.59831 -1.13687e-13 92.9946 30.9824 -35.0708 8.62785 0 1.13687e-13 5.56597e-15 -6.36111e-15 -0 5.67412 -2.36198 0.530356 -75.808 -4.38692 -5.33418 -2.62878 -3.42545 3.14601 29.7498 -1.82753 -90.2266
